:SAMPLES-PER-SECOND 30
:FULLY-SPECIFIED
:DEGREES
576
root  -13.0747 40.2505 -15.6054 0.0322876 71.8641 1.98578
RightUpLeg  -17.993 -19.6473 0.690484
RightLeg  21.7128 -7.35234 -3.5675
RightFoot  -6.5996 -0.135153 2.18793
RightToes  0.000482159 0.542163 -0.142577
Spine  13.1039 -1.16431 -0.377567
Spine1  9.58871 -1.99711 2.19838
HEad  -8.18143 9.34936 -4.29134
LeftShoulder1  8.5933 -13.8463 -43.0678
LeftArm  -5.72519 -0.731534 -23.2576
LeftForeArm  56.9788 -78.5662 -67.4253
LeftHand  -0.25398 0.0180481 5.50724
RightShoulder  4.6641 8.78644 32.0075
RightArm  -16.6224 -34.5929 23.1384
RightForeArm  62.7421 73.8841 130.091
RightHand  0.692283 -11.7466 -13.5845
LeftUpLeg  3.84222 3.81517 -4.67396
LeftLeg  8.9094 19.428 -2.5983
LeftFoot  -12.85 0.117979 3.10305
LeftToes  1.06246e-005 4.65854e-005 -8.18503e-006
577
root  -11.6658 40.0336 -15.5758 3.87819 74.6936 6.08057
RightUpLeg  -20.1195 -21.6855 2.35204
RightLeg  15.7864 -7.46684 -1.50684
RightFoot  -5.68947 -0.209711 3.48515
RightToes  0.000482159 0.542163 -0.142577
Spine  12.4903 -1.25747 -2.07424
Spine1  10.0268 -2.5231 3.07601
HEad  -8.0279 7.26041 -3.22725
LeftShoulder1  8.52087 -13.773 -42.8748
LeftArm  -5.12173 -1.66237 -23.0722
LeftForeArm  56.318 -78.5233 -67.1007
LeftHand  -0.25398 0.0180481 5.50724
RightShoulder  4.68084 8.76735 32.2036
RightArm  -18.5072 -36.4709 24.5813
RightForeArm  65.996 73.2604 132.699
RightHand  0.68119 -11.9099 -13.0808
LeftUpLeg  6.61929 2.67592 -6.50962
LeftLeg  7.97022 18.1065 -2.66755
LeftFoot  -14.1351 0.171224 3.51228
LeftToes  1.06246e-005 4.65854e-005 -8.18503e-006
578
root  -10.1516 39.7543 -15.553 8.05453 77.8191 10.8839
RightUpLeg  -19.8056 -14.5821 -0.331217
RightLeg  8.78057 -15.605 2.66582
RightFoot  -4.46944 -0.267471 3.92575
RightToes  0.000482159 0.542163 -0.142577
Spine  12.2119 -1.67529 -3.10851
Spine1  10.5065 -3.28941 3.74773
HEad  -7.8551 5.33252 -2.31769
LeftShoulder1  8.44303 -13.6858 -42.6873
LeftArm  -4.46833 -2.54371 -22.7882
LeftForeArm  55.4997 -78.4753 -66.8587
LeftHand  -0.25398 0.0180481 5.50724
RightShoulder  4.65797 8.6632 32.3425
RightArm  -20.2493 -38.1948 25.9542
RightForeArm  69.0699 72.4938 135.476
RightHand  0.698464 -12.1698 -12.8971
LeftUpLeg  10.0812 2.33494 -7.75741
LeftLeg  7.31399 16.1162 -2.6234
LeftFoot  -15.5006 0.257189 4.49069
LeftToes  1.06246e-005 4.65854e-005 -8.18503e-006
579
root  -8.51725 39.3719 -15.5509 12.5414 80.597 16.1808
RightUpLeg  -19.1572 -7.65164 -2.98173
RightLeg  1.74102 -21.4708 6.40794
RightFoot  -3.54432 -0.397101 5.49247
RightToes  0.000482159 0.542163 -0.142577
Spine  12.0399 -2.18093 -3.42171
Spine1  10.858 -3.97491 4.04876
HEad  -7.47606 3.62149 -1.60896
LeftShoulder1  8.38616 -13.6045 -42.5954
LeftArm  -3.80994 -3.21186 -22.518
LeftForeArm  54.3891 -78.3995 -66.2676
LeftHand  -0.25398 0.0180481 5.50724
RightShoulder  4.62413 8.53519 32.4685
RightArm  -21.5749 -39.5204 26.8829
RightForeArm  71.5399 71.7154 137.933
RightHand  0.726225 -12.3196 -13.0836
LeftUpLeg  13.5109 2.54252 -8.23702
LeftLeg  7.90581 13.7502 -2.42734
LeftFoot  -17.5849 0.370411 4.8887
LeftToes  1.06246e-005 4.65854e-005 -8.18503e-006
580
root  -6.77166 38.9151 -15.5427 19.806 82.7467 24.1162
RightUpLeg  -19.3057 -6.97258 -3.1791
RightLeg  -1.39482 -19.2607 7.28619
RightFoot  -3.93094 -0.531108 7.74217
RightToes  0.000482159 0.542163 -0.142577
Spine  11.4649 -2.56942 -3.95485
Spine1  11.2997 -4.63496 4.6883
HEad  -6.9127 2.22886 -1.28625
LeftShoulder1  8.36899 -13.5504 -42.6462
LeftArm  -3.36509 -3.5207 -22.3757
LeftForeArm  53.0506 -78.2892 -65.1701
LeftHand  -0.25398 0.0180481 5.50724
RightShoulder  4.60169 8.4691 32.4931
RightArm  -22.3449 -40.2022 27.2913
RightForeArm  73.2893 71.1248 139.611
RightHand  0.728664 -12.169 -13.3932
LeftUpLeg  16.3537 3.24408 -8.24147
LeftLeg  9.81031 11.1458 -2.23733
LeftFoot  -19.9072 0.435993 4.22537
LeftToes  1.06246e-005 4.65854e-005 -8.18503e-006
581
root  -4.94881 38.5083 -15.521 30.4814 84.6624 35.2197
RightUpLeg  -20.049 -6.88528 -2.90795
RightLeg  0.327759 -16.362 6.48361
RightFoot  -3.76839 -0.496032 7.1238
RightToes  0.000482159 0.542163 -0.142577
Spine  10.5633 -2.95533 -4.48294
Spine1  11.9667 -5.50987 5.96226
HEad  -6.25451 1.11698 -1.29527
LeftShoulder1  8.37161 -13.5225 -42.7349
LeftArm  -3.18103 -3.28111 -22.4154
LeftForeArm  51.8735 -78.1825 -64.1068
LeftHand  -0.25398 0.0180481 5.50724
RightShoulder  4.55441 8.39771 32.3258
RightArm  -22.3649 -40.304 27.2234
RightForeArm  74.1596 70.7879 140.5
RightHand  0.725014 -11.9281 -13.7847
LeftUpLeg  18.9891 4.90781 -7.35756
LeftLeg  11.9445 8.03241 -1.97749
LeftFoot  -21.1231 0.428053 3.51748
LeftToes  1.06246e-005 4.65854e-005 -8.18503e-006
582
root  -3.0459 38.2216 -15.541 36.7067 86.6033 41.6663
RightUpLeg  -21.3725 -8.24745 -1.06554
RightLeg  5.65195 -12.748 4.55802
RightFoot  -0.300567 -0.19432 2.25861
RightToes  0.000482159 0.542163 -0.142577
Spine  9.71251 -3.47496 -3.29287
Spine1  12.529 -6.27221 6.74383
HEad  -5.64329 0.105996 -1.38898
LeftShoulder1  8.38732 -13.5156 -42.839
LeftArm  -3.08976 -2.38267 -22.6221
LeftForeArm  51.1635 -78.1161 -63.4825
LeftHand  -0.25398 0.0180481 5.50724
RightShoulder  4.44938 8.19688 32.0844
RightArm  -21.625 -40.1897 26.7107
RightForeArm  74.146 70.6824 140.754
RightHand  0.782216 -12.2887 -14.0307
LeftUpLeg  21.6239 7.68439 -4.93966
LeftLeg  14.0178 3.98428 -1.31986
LeftFoot  -20.927 0.323611 2.37919
LeftToes  1.06246e-005 4.65854e-005 -8.18503e-006
